<?xml version="1.0" standalone="no"?>
<!DOCTYPE svg PUBLIC "-//W3C//DTD SVG 20010904//EN"
 "http://www.w3.org/TR/2001/REC-SVG-20010904/DTD/svg10.dtd">
<svg version="1.0" xmlns="http://www.w3.org/2000/svg"
 width="340.000000pt" height="270.000000pt" viewBox="0 0 340.000000 270.000000"
 preserveAspectRatio="xMidYMid meet">

<g transform="translate(0.000000,270.000000) scale(0.100000,-0.100000)"
fill="#000000" stroke="none">
<path d="M2619 2665 c-107 -39 -246 -137 -399 -281 -52 -49 -116 -104 -142
-122 -49 -34 -60 -55 -32 -66 53 -20 79 -4 249 150 157 142 268 226 331 250
47 18 47 18 65 -5 53 -65 85 -236 69 -364 -22 -174 -93 -318 -224 -455 -59
-62 -73 -81 -50 -69 49 25 132 105 176 170 88 130 126 247 135 419 9 170 -20
294 -84 361 -30 30 -42 32 -94 12z"/>
<path d="M1297 2523 c-8 -10 -28 -62 -43 -115 l-27 -97 -45 -16 c-30 -12 -51
-28 -64 -51 -11 -19 -58 -61 -106 -94 -48 -33 -82 -60 -77 -60 24 0 145 83
185 128 39 43 56 53 127 75 45 15 130 32 190 39 l108 13 -69 5 -69 5 -17 50
c-22 64 -58 135 -69 135 -4 0 -15 -8 -24 -17z m33 -52 c5 -21 13 -58 16 -83 6
-44 6 -45 -26 -52 -62 -12 -63 -11 -56 45 8 57 34 129 47 129 4 0 13 -17 19
-39z"/>
<path d="M2409 2384 c-69 -21 -138 -72 -183 -136 -22 -32 -37 -60 -34 -63 3
-4 32 1 64 10 33 8 104 18 158 22 98 6 99 6 77 24 -32 26 -97 42 -140 35 l-36
-6 35 31 c19 17 67 46 105 64 66 32 68 34 35 34 -19 0 -56 -7 -81 -15z"/>
<path d="M2067 2354 c-26 -30 -99 -64 -138 -64 -24 0 -35 -20 -18 -31 23 -14
82 -10 119 9 38 19 73 71 68 100 -2 15 -7 13 -31 -14z"/>
<path d="M1872 2338 c-42 -19 -48 -38 -13 -38 23 0 65 33 60 47 -2 6 -21 2
-47 -9z"/>
<path d="M1593 2329 c-61 -11 -121 -46 -143 -82 -43 -69 -13 -76 78 -17 60 40
147 69 207 71 l30 1 -30 12 c-43 19 -94 24 -142 15z"/>
<path d="M1395 2288 c-31 -18 -44 -40 -45 -75 0 -23 5 -33 15 -33 9 0 15 9 15
23 0 12 9 39 19 60 10 20 18 37 17 37 0 0 -10 -6 -21 -12z"/>
<path d="M1649 2254 c-49 -15 -75 -36 -64 -54 11 -17 47 -11 110 20 33 17 65
30 72 30 6 0 15 5 18 10 9 15 -82 11 -136 -6z"/>
<path d="M1280 2180 c-14 -24 -47 -61 -75 -82 -60 -46 -64 -63 -13 -62 76 2
121 54 116 136 l-3 53 -25 -45z"/>
<path d="M1805 2203 c-16 -2 -55 -11 -85 -20 l-55 -16 52 -18 c128 -44 254
-127 380 -250 40 -39 73 -68 73 -63 0 24 -105 177 -146 213 -45 40 -46 41 -20
41 35 0 140 -35 193 -65 37 -20 42 -21 33 -6 -18 35 -120 120 -173 145 -30 14
-83 30 -118 35 -64 11 -79 11 -134 4z"/>
<path d="M2253 2163 c-22 -4 -33 -23 -14 -23 4 0 28 -18 53 -40 41 -36 53 -54
73 -115 5 -16 8 -17 15 -5 17 26 11 66 -15 104 l-24 36 30 0 c16 0 43 -7 59
-15 17 -9 30 -12 30 -7 0 11 -39 46 -67 61 -21 11 -94 13 -140 4z"/>
<path d="M1492 2137 c-49 -10 -117 -69 -128 -111 -6 -27 -19 -31 -113 -42 -74
-8 -64 -19 29 -28 36 -4 75 -10 86 -12 18 -5 23 1 33 39 20 83 92 129 175 113
33 -6 126 -69 126 -85 0 -5 -12 -12 -26 -15 -46 -12 -21 -15 30 -4 l48 10 -43
45 c-85 87 -134 107 -217 90z"/>
<path d="M1442 2047 c-12 -13 -22 -35 -22 -50 0 -22 5 -27 25 -27 14 0 37 11
50 25 14 13 25 36 25 50 0 21 -5 25 -28 25 -17 0 -37 -10 -50 -23z"/>
<path d="M742 1990 c-35 -25 -42 -36 -42 -64 0 -40 8 -66 21 -66 5 0 9 7 9 15
0 8 -4 15 -10 15 -5 0 -10 15 -10 34 0 39 7 43 84 52 50 6 54 5 79 -26 27 -31
28 -50 3 -50 -8 0 -19 7 -26 15 -9 11 -16 12 -26 4 -19 -15 3 -62 25 -53 9 4
39 11 66 16 62 12 100 30 145 69 l35 30 -70 -7 c-38 -4 -81 -11 -94 -16 -20
-7 -29 -4 -51 17 -28 27 -53 31 -96 14 -28 -10 -28 -10 -9 10 25 29 15 26 -33
-9z"/>
<path d="M1837 1953 c47 -33 96 -74 105 -89 5 -7 -39 -9 -139 -6 -96 3 -165 0
-201 -8 l-56 -12 75 -22 c98 -28 155 -63 217 -131 60 -65 92 -143 95 -227 2
-68 11 -58 27 31 18 100 -4 188 -62 249 l-32 32 65 0 c81 0 178 -34 260 -90
l62 -42 -44 63 c-100 142 -198 222 -316 259 -88 27 -104 25 -56 -7z"/>
<path d="M2220 1881 c71 -104 93 -194 64 -266 -8 -19 -7 -19 16 -4 50 33 74
108 58 180 -2 8 11 15 34 19 50 9 84 33 96 69 13 37 10 38 -28 10 -23 -18 -39
-21 -87 -17 -51 4 -79 14 -186 66 -5 2 10 -23 33 -57z"/>
<path d="M1442 1905 c-60 -13 -132 -48 -132 -64 0 -14 58 -96 86 -123 52 -49
140 -81 231 -86 93 -5 193 5 193 19 0 5 -10 9 -23 9 -40 0 -170 41 -228 71
-61 33 -129 85 -129 99 0 13 50 38 130 66 l65 23 -65 -1 c-36 0 -93 -6 -128
-13z"/>
<path d="M1040 1897 c-42 -21 -38 -46 10 -53 70 -11 177 -96 238 -187 14 -20
27 -36 29 -33 7 7 -27 127 -47 165 -48 93 -158 145 -230 108z"/>
<path d="M783 1808 c-19 -18 -24 -19 -38 -8 -15 12 -15 11 -4 -14 15 -32 28
-29 52 12 22 38 19 40 -10 10z"/>
<path d="M634 1763 c-24 -49 -29 -70 -29 -133 1 -45 7 -89 16 -110 15 -34 16
-31 11 70 -3 87 -1 115 16 165 11 33 19 61 17 63 -1 2 -16 -23 -31 -55z"/>
<path d="M2575 1708 c-49 -49 -140 -110 -200 -135 -25 -10 -45 -21 -45 -25 0
-14 140 -8 177 7 20 8 38 14 40 11 6 -6 -46 -138 -79 -196 -17 -30 -55 -90
-84 -132 -30 -43 -49 -78 -43 -78 6 0 55 44 108 98 81 80 105 112 141 184 36
73 44 100 48 162 5 76 -3 147 -16 145 -4 -1 -25 -19 -47 -41z"/>
<path d="M750 1691 c0 -39 -15 -77 -45 -113 -14 -16 -25 -42 -25 -56 l1 -27
13 31 c27 62 66 59 180 -15 50 -32 114 -70 143 -84 52 -27 261 -93 268 -85 3
2 -32 19 -78 38 -200 81 -366 177 -405 235 -13 18 -25 49 -29 69 -7 43 -23 48
-23 7z"/>
<path d="M1984 1704 c15 -48 46 -185 55 -244 20 -119 10 -247 -24 -335 -19
-48 58 43 88 105 33 67 32 57 32 260 0 0 25 -10 55 -22 74 -29 181 -30 230 -3
l35 20 -70 5 c-105 9 -203 59 -339 175 -43 37 -66 51 -62 39z"/>
<path d="M1590 1488 c87 -34 132 -61 183 -107 28 -25 62 -79 55 -86 -18 -18
-286 -70 -418 -82 l-85 -7 65 -14 c38 -8 128 -14 220 -15 162 0 225 10 323 53
l46 21 -30 49 c-42 68 -132 148 -207 183 -50 23 -80 30 -150 34 l-87 4 85 -33z"/>
<path d="M2636 1398 c-11 -17 -47 -66 -82 -109 -52 -65 -58 -76 -36 -66 15 6
36 17 47 24 35 23 38 16 32 -69 -6 -87 -26 -156 -71 -248 l-27 -55 41 45 c90
100 147 269 137 406 -7 97 -17 114 -41 72z"/>
<path d="M2240 1349 c-1 -86 -108 -226 -226 -295 -25 -15 -43 -29 -40 -31 8
-8 137 37 199 70 32 17 71 45 87 63 50 57 52 142 5 199 l-24 30 -1 -36z"/>
<path d="M690 1357 c0 -41 56 -134 121 -199 91 -92 108 -87 22 6 -38 41 -86
105 -106 143 -20 37 -37 60 -37 50z"/>
<path d="M1945 1138 c-82 -62 -242 -118 -340 -118 -19 0 -36 -4 -39 -9 -10
-15 74 -81 144 -114 56 -27 76 -31 145 -31 65 0 91 5 138 26 31 15 57 29 57
31 0 2 -27 1 -59 -1 -42 -3 -80 2 -128 16 -69 21 -123 51 -93 52 29 1 125 51
158 83 32 30 67 85 60 92 -2 2 -21 -10 -43 -27z"/>
<path d="M2423 1093 c-165 -140 -337 -224 -552 -268 -41 -9 -77 -18 -80 -20
-2 -3 44 -5 103 -5 117 0 225 19 324 56 36 13 66 23 68 21 9 -8 -89 -140 -174
-234 -96 -106 -95 -109 13 -45 173 103 305 239 367 379 23 53 36 167 20 177
-5 3 -45 -24 -89 -61z"/>
<path d="M940 1043 c0 -52 -72 -110 -169 -141 -53 -16 -60 -20 -40 -25 42 -11
128 -8 163 7 18 8 41 24 50 37 14 20 18 22 26 9 13 -21 12 -36 -4 -68 -17 -32
-37 -44 -130 -75 l-69 -23 79 -25 c165 -51 300 -25 372 70 18 24 31 46 28 48
-3 3 -29 -8 -58 -25 -59 -34 -147 -62 -191 -62 l-30 0 36 35 c62 60 58 125
-14 215 -35 43 -49 50 -49 23z"/>
<path d="M2640 884 c-56 -44 -163 -107 -212 -125 -51 -18 -48 -29 7 -29 25 0
45 -4 45 -9 0 -17 -113 -112 -176 -149 -35 -20 -62 -38 -59 -40 7 -8 160 64
217 102 75 49 155 137 196 215 19 34 32 64 30 66 -2 2 -24 -12 -48 -31z"/>
<path d="M1280 794 c-57 -84 -196 -185 -304 -221 -39 -13 -37 -13 53 -9 86 3
101 7 172 44 l78 40 30 -52 c52 -92 128 -146 231 -166 62 -12 87 1 39 20 -94
39 -184 150 -239 293 -18 45 -33 83 -34 84 -1 1 -12 -14 -26 -33z"/>
<path d="M1420 800 c0 -43 91 -150 157 -183 130 -68 307 -33 503 99 39 26 69
48 67 50 -1 2 -38 -8 -80 -21 -195 -62 -388 -49 -559 36 -60 30 -88 36 -88 19z"/>
<path d="M935 650 c-33 -10 -76 -19 -95 -19 -55 -2 -71 -18 -26 -26 81 -16
211 16 224 53 5 16 -30 13 -103 -8z"/>
<path d="M1175 506 c-52 -53 -91 -82 -155 -115 l-85 -43 65 6 c147 14 260 79
276 160 7 41 0 66 -18 65 -7 -1 -44 -33 -83 -73z"/>
<path d="M1630 516 c0 -3 14 -31 31 -61 32 -57 114 -139 149 -148 26 -7 26 -7
-10 49 -16 26 -28 49 -26 51 1 2 36 -1 76 -7 52 -7 97 -7 154 0 80 12 242 57
233 66 -3 3 -31 1 -63 -5 -137 -26 -305 -8 -521 55 -13 3 -23 3 -23 0z"/>
<path d="M1305 460 c-24 -39 52 -138 136 -177 51 -24 155 -53 190 -53 17 0 10
7 -27 25 -27 14 -78 50 -114 81 -97 84 -161 134 -170 134 -5 0 -12 -5 -15 -10z"/>
</g>
</svg>
